<svg xmlns="http://www.w3.org/2000/svg" version="1.1" xmlns:xlink="http://www.w3.org/1999/xlink" xmlns:svgjs="http://svgjs.com/svgjs" width="256" height="256"><svg xmlns="http://www.w3.org/2000/svg" width="256" height="256" viewBox="0 0 100 100" fill="#008ACD">
  <path d="m53.38 32.43-1.6-1.6 3.86-3.85 1.6 1.6-3.86 3.85zm.47 9.68-1.6-1.6-3.84 3.85 1.59 1.6 3.85-3.85zm32.23 31.56v6.77H13.92v-6.77h1.13V51.13H18.75L18 48.87h1.42a8.7 8.7 0 0 1 .14-2.66V19.56h60.88v24.07c.94 1.55.65 3.64.24 5.24H82l-.75 2.26h3.7v22.55h1.13zM80.5 53.38l-.06.19v20.1h2.25V53.38H80.5zm3.32 22.55H16.18v2.25h67.64v-2.25zm-62-44.44 9.67-9.67h-9.68v9.68zm0 3.2v8.58c.4-.18.78-.28 1.1-.34a4.13 4.13 0 0 1 4.42-3.09 4.92 4.92 0 0 1 6.75-1.47 4.22 4.22 0 0 1 5.72 2.61 2.98 2.98 0 0 1 2.24 2.88l.06.06V23.41L30.34 35.18l-1.6-1.6 11.77-11.76h-5.83L21.82 34.67zm35.41-12.87L44.36 34.67v14.2h13.6c.23-1.84 1.01-3.29 2.19-4.1V21.82h-2.92zm5.17 9.68 4.51-4.51 1.6 1.59-6.11 6.1v6.77a3.8 3.8 0 0 1 2.55-.71 4.54 4.54 0 0 1 6.14-1.34 3.9 3.9 0 0 1 5.18 2.26c.72 0 1.35.1 1.91.27V30.17l-4.5 4.51-1.6-1.6 6.1-6.1v-3.57l-2.25 2.25-1.6-1.6 2.26-2.25H62.4v9.69zm-1.13 15.27a3.5 3.5 0 0 0-1.03 2.1H78.33c.39-1.32.82-3.28.08-4.23a1.43 1.43 0 0 0-.23-.22c-.5-.4-1.34-.57-2.53-.48l-1.33.16-.07-1.2a1.65 1.65 0 0 0-2.6-1.24l-.74.53-.68-.62a2.25 2.25 0 0 0-3.63.85l-.4 1.02-1.03-.36a1.56 1.56 0 0 0-2.05 1.84l.33 1.22-1.05.16-.2.03c-.34.05-.65.2-.93.44zm-39.6 2.1h20.44v-.01a5.7 5.7 0 0 0-1.82-3.55l-.78-.42.26-.84a.77.77 0 0 0 .03-.18c0-.4-.33-.73-.72-.73l-1.19.14-.15-1.18a1.96 1.96 0 0 0-3.09-1.47l-.74.53-.68-.62a2.63 2.63 0 0 0-1.78-.69A2.6 2.6 0 0 0 29 41.53l-.4 1.02-1.03-.36a1.86 1.86 0 0 0-2.51 1.72c0 .4-.17 1.08-1.33 1.2-.57.05-1.16.14-1.56.67-.13.17-.26.4-.36.72a6.2 6.2 0 0 0-.14 2.37zm-.55 2.26.7 2.07.04.13.02.05a3.38 3.38 0 0 0 3.19 2.26H74.92c1.44 0 2.7-.9 3.19-2.26l.02-.06.36-1.07.37-1.12H21.13zm5.2 22.54h2.26V57.9h-2.25v15.78zm4.52 0h2.25V57.9h-2.26v15.78zm4.5 0h2.26V57.9h-2.26v15.78zm4.51 0h2.26V57.9h-2.26v15.78zm4.51 0h2.26V57.9h-2.26v15.78zm4.51 0h2.26V57.9h-2.26v15.78zm4.51 0h2.26V57.9h-2.26v15.78zm4.51 0h2.26V57.9h-2.26v15.78zm4.51 0h2.26V57.9H62.4v15.78zm4.51 0h2.26V57.9H66.9v15.78zm4.51 0h2.25V57.9h-2.25v15.78zm-49.6 0h2.25V57.8a5.62 5.62 0 0 1-2.26-.94v16.81zm56.37 0V56.86c-.67.47-1.44.8-2.26.94v15.87h2.25zM54.04 21.81h-9.68v9.68l9.68-9.67zM17.31 73.67h2.25v-20.1l-.06-.19h-2.2v20.3zm16.9-29.3h-2.25v2.25h2.26v-2.26zm-4.5 0h-2.26v2.25h2.26v-2.26zm39.46 0H66.9v2.25h2.26v-2.26zm4.5 0h-2.25v2.25h2.25v-2.26z"></path>
</svg><style>@media (prefers-color-scheme: light) { :root { filter: contrast(1) brightness(0.9); } }
@media (prefers-color-scheme: dark) { :root { filter: contrast(0.625) brightness(2.5); } }
</style></svg>