<svg xmlns="http://www.w3.org/2000/svg" enable-background="new 0 0 100 100" viewBox="0 0 100 100" width="256" height="256">
	<path d="M53.382,32.428l-1.594-1.594l3.849-3.849l1.594,1.594L53.382,32.428z M53.849,42.108l-1.594-1.594l-3.849,3.849L50,45.957
	L53.849,42.108z M86.077,73.675v6.764H13.923v-6.764h1.128V53.382v-2.255h2.255h1.442l-0.752-2.254h1.422
	c-0.081-1.013-0.036-1.899,0.142-2.66V19.56h22.548h2.254h15.783h2.255H80.44v24.066c0.938,1.558,0.648,3.645,0.236,5.246h1.328
	l-0.751,2.254h1.442h2.255v2.255v20.293H86.077z M80.501,53.382l-0.062,0.186v20.107h2.255V53.382H80.501z M83.822,75.93h-1.127
	H80.44h-2.255H75.93h-2.255H71.42h-2.255h-2.255h-2.254h-2.255h-2.255h-2.254h-2.255h-2.255h-2.255h-2.255h-2.254h-2.255h-4.509
	h-2.255h-2.254h-2.255h-2.254H28.58h-2.255H24.07h-4.51h-2.254h-1.127v2.255h67.643V75.93z M21.815,31.495l9.68-9.68h-9.68V31.495z
	 M21.815,34.683v8.589c0.397-0.181,0.784-0.282,1.109-0.338c0.474-1.907,2.329-3.319,4.415-3.093
	c0.886-1.371,2.438-2.243,4.113-2.243c0.943,0,1.855,0.27,2.637,0.77c0.532-0.236,1.106-0.359,1.697-0.359
	c1.88,0,3.49,1.243,4.022,2.969c1.29,0.326,2.247,1.497,2.247,2.886c0,0.001,0,0.003,0,0.004c0.018,0.017,0.036,0.037,0.053,0.055
	V23.409L30.341,35.177l-1.594-1.595l11.767-11.767h-5.831L21.815,34.683z M57.231,21.815L44.363,34.683v14.189h13.603
	c0.227-1.831,1.005-3.278,2.18-4.091V21.815H57.231z M62.401,31.495l4.509-4.51l1.594,1.594l-6.104,6.104v6.764
	c0.711-0.513,1.601-0.79,2.548-0.711c0.823-1.232,2.235-2.011,3.758-2.011c0.851,0,1.674,0.237,2.383,0.678
	c0.478-0.203,0.992-0.308,1.519-0.308c1.674,0,3.117,1.065,3.665,2.567c0.714,0.006,1.35,0.098,1.911,0.27v-11.76l-4.509,4.51
	l-1.594-1.594l6.103-6.103v-3.576l-2.254,2.254l-1.595-1.594l2.255-2.255H62.401V31.495z M61.274,46.771
	c-0.512,0.44-0.877,1.168-1.037,2.102h1.037h1.127h15.783h0.151c0.385-1.321,0.817-3.285,0.074-4.23
	c-0.064-0.081-0.141-0.154-0.225-0.222c-0.498-0.403-1.343-0.568-2.537-0.482l-1.326,0.158l-0.072-1.196
	c-0.052-0.869-0.774-1.551-1.643-1.551c-0.343,0-0.675,0.107-0.956,0.309l-0.744,0.532l-0.674-0.619
	c-0.416-0.382-0.959-0.592-1.527-0.592c-0.93,0-1.776,0.577-2.105,1.437l-0.391,1.025l-1.035-0.363
	c-0.191-0.068-0.364-0.1-0.529-0.1c-0.871,0-1.579,0.69-1.579,1.538c0,0.135,0.018,0.269,0.054,0.4l0.333,1.219l-1.053,0.162
	l-0.197,0.03C61.856,46.382,61.546,46.537,61.274,46.771z M21.674,48.873h0.141h20.293h0.001c0-0.006-0.001-0.01-0.001-0.015
	c-0.041-1.578-1.387-3.251-1.814-3.548l-0.787-0.42l0.262-0.84c0.021-0.08,0.031-0.14,0.031-0.184c0-0.398-0.325-0.722-0.723-0.722
	l-1.185,0.136l-0.156-1.176c-0.061-1.031-0.917-1.839-1.95-1.839c-0.408,0-0.8,0.126-1.135,0.365l-0.745,0.532l-0.674-0.618
	c-0.486-0.446-1.118-0.691-1.781-0.691c-1.102,0-2.066,0.658-2.456,1.678l-0.391,1.023l-1.034-0.362
	c-0.227-0.079-0.433-0.118-0.631-0.118c-1.037,0-1.88,0.822-1.88,1.834c0,0.399-0.173,1.086-1.332,1.196
	c-0.567,0.054-1.154,0.151-1.56,0.68c-0.128,0.166-0.254,0.398-0.353,0.718C21.656,47.023,21.569,47.777,21.674,48.873z
	 M21.125,51.127l0.69,2.075l0.041,0.123c0.006,0.02,0.017,0.037,0.024,0.057c0.479,1.35,1.748,2.255,3.185,2.255h1.26h2.255h2.255
	h2.254h2.255h2.254h2.255h2.255h1.127h1.128h2.255h2.254h2.255h2.255h2.255h2.255h2.254h2.255h2.255h2.254h2.255h2.255h2.255h1.259
	c1.437,0,2.705-0.905,3.185-2.255c0.007-0.02,0.018-0.038,0.024-0.058l0.356-1.07l0.375-1.127h-0.69H62.401h-1.127h-1.127h-2.254
	H44.363h-0.465h-0.663h-1.127H21.815H21.125z M26.325,73.675h2.255V57.892h-2.255V73.675z M30.835,73.675h2.254V57.892h-2.254
	V73.675z M35.344,73.675h2.254V57.892h-2.254V73.675z M39.854,73.675h2.255V57.892h-2.255V73.675z M44.363,73.675h2.255V57.892
	h-2.255V73.675z M48.872,73.675h2.255V57.892h-2.255V73.675z M53.382,73.675h2.255V57.892h-2.255V73.675z M57.892,73.675h2.254
	V57.892h-2.254V73.675z M62.401,73.675h2.255V57.892h-2.255V73.675z M66.911,73.675h2.255V57.892h-2.255V73.675z M71.42,73.675
	h2.255V57.892H71.42V73.675z M21.815,73.675h2.255V57.801c-0.822-0.147-1.59-0.471-2.255-0.941V73.675z M78.185,73.675V56.86
	c-0.666,0.469-1.433,0.794-2.254,0.94v15.874H78.185z M54.043,21.815h-9.68v9.68L54.043,21.815z M17.306,73.675h2.254v-20.11
	l-0.061-0.183h-2.193V73.675z M34.217,44.363h-2.255v2.255c2.255,0,0,0,2.255,0V44.363z M29.707,44.363h-2.255v2.255
	c2.255,0,0,0,2.255,0V44.363z M69.166,44.363h-2.255v2.255c2.255,0,0,0,2.255,0V44.363z M73.675,44.363H71.42v2.255
	c2.255,0,0,0,2.255,0V44.363z" fill="#000000" class="color000 svgShape">
	</path>
</svg>
